<svg xmlns="http://www.w3.org/2000/svg" class="qr-svg " style="width: 100%; height: auto;" viewBox="0 0 29 29">
<defs><style>rect{shape-rendering:crispEdges}</style></defs>
<path class="qr-4 " stroke="transparent" fill="#fff" fill-opacity="1" d="M12 0 h2 v1 h-2Z M15 0 h3 v1 h-3Z M19 0 h2 v1 h-2Z M9 1 h2 v1 h-2Z M13 1 h3 v1 h-3Z M18 1 h1 v1 h-1Z M10 2 h1 v1 h-1Z M12 2 h1 v1 h-1Z M14 2 h1 v1 h-1Z M17 2 h2 v1 h-2Z M9 3 h1 v1 h-1Z M12 3 h1 v1 h-1Z M14 3 h1 v1 h-1Z M18 3 h2 v1 h-2Z M9 4 h1 v1 h-1Z M13 4 h1 v1 h-1Z M15 4 h1 v1 h-1Z M18 4 h1 v1 h-1Z M20 4 h1 v1 h-1Z M10 5 h1 v1 h-1Z M12 5 h4 v1 h-4Z M17 5 h3 v1 h-3Z M10 7 h2 v1 h-2Z M14 7 h1 v1 h-1Z M17 7 h4 v1 h-4Z M10 8 h2 v1 h-2Z M13 8 h1 v1 h-1Z M18 8 h3 v1 h-3Z M0 9 h1 v1 h-1Z M2 9 h4 v1 h-4Z M9 9 h1 v1 h-1Z M11 9 h2 v1 h-2Z M16 9 h1 v1 h-1Z M22 9 h1 v1 h-1Z M25 9 h1 v1 h-1Z M28 9 h1 v1 h-1Z M2 10 h1 v1 h-1Z M5 10 h1 v1 h-1Z M8 10 h1 v1 h-1Z M10 10 h2 v1 h-2Z M14 10 h1 v1 h-1Z M16 10 h4 v1 h-4Z M21 10 h2 v1 h-2Z M24 10 h2 v1 h-2Z M27 10 h2 v1 h-2Z M0 11 h2 v1 h-2Z M5 11 h1 v1 h-1Z M7 11 h1 v1 h-1Z M9 11 h8 v1 h-8Z M19 11 h3 v1 h-3Z M23 11 h2 v1 h-2Z M26 11 h2 v1 h-2Z M0 12 h2 v1 h-2Z M4 12 h1 v1 h-1Z M7 12 h1 v1 h-1Z M11 12 h4 v1 h-4Z M16 12 h4 v1 h-4Z M21 12 h1 v1 h-1Z M24 12 h4 v1 h-4Z M1 13 h1 v1 h-1Z M5 13 h1 v1 h-1Z M8 13 h1 v1 h-1Z M11 13 h1 v1 h-1Z M19 13 h2 v1 h-2Z M23 13 h1 v1 h-1Z M4 14 h2 v1 h-2Z M7 14 h2 v1 h-2Z M10 14 h5 v1 h-5Z M16 14 h3 v1 h-3Z M21 14 h1 v1 h-1Z M24 14 h2 v1 h-2Z M27 14 h1 v1 h-1Z M5 15 h1 v1 h-1Z M7 15 h1 v1 h-1Z M9 15 h3 v1 h-3Z M13 15 h2 v1 h-2Z M17 15 h1 v1 h-1Z M22 15 h1 v1 h-1Z M25 15 h1 v1 h-1Z M27 15 h1 v1 h-1Z M0 16 h1 v1 h-1Z M2 16 h3 v1 h-3Z M8 16 h2 v1 h-2Z M14 16 h1 v1 h-1Z M17 16 h3 v1 h-3Z M21 16 h4 v1 h-4Z M26 16 h3 v1 h-3Z M3 17 h2 v1 h-2Z M7 17 h4 v1 h-4Z M12 17 h3 v1 h-3Z M16 17 h2 v1 h-2Z M21 17 h3 v1 h-3Z M25 17 h1 v1 h-1Z M28 17 h1 v1 h-1Z M2 18 h2 v1 h-2Z M5 18 h1 v1 h-1Z M8 18 h1 v1 h-1Z M10 18 h2 v1 h-2Z M14 18 h1 v1 h-1Z M16 18 h3 v1 h-3Z M22 18 h3 v1 h-3Z M26 18 h2 v1 h-2Z M2 19 h1 v1 h-1Z M4 19 h1 v1 h-1Z M9 19 h2 v1 h-2Z M12 19 h1 v1 h-1Z M14 19 h1 v1 h-1Z M17 19 h4 v1 h-4Z M22 19 h1 v1 h-1Z M27 19 h2 v1 h-2Z M2 20 h1 v1 h-1Z M7 20 h1 v1 h-1Z M9 20 h2 v1 h-2Z M12 20 h1 v1 h-1Z M14 20 h2 v1 h-2Z M18 20 h2 v1 h-2Z M28 20 h1 v1 h-1Z M9 21 h1 v1 h-1Z M11 21 h1 v1 h-1Z M16 21 h2 v1 h-2Z M19 21 h1 v1 h-1Z M26 21 h3 v1 h-3Z M12 22 h1 v1 h-1Z M14 22 h1 v1 h-1Z M16 22 h1 v1 h-1Z M26 22 h3 v1 h-3Z M9 23 h1 v1 h-1Z M14 23 h2 v1 h-2Z M18 23 h2 v1 h-2Z M25 23 h2 v1 h-2Z M10 24 h1 v1 h-1Z M14 24 h1 v1 h-1Z M16 24 h3 v1 h-3Z M26 24 h1 v1 h-1Z M28 24 h1 v1 h-1Z M10 25 h3 v1 h-3Z M17 25 h1 v1 h-1Z M22 25 h1 v1 h-1Z M24 25 h4 v1 h-4Z M9 26 h2 v1 h-2Z M14 26 h1 v1 h-1Z M16 26 h5 v1 h-5Z M22 26 h1 v1 h-1Z M25 26 h1 v1 h-1Z M9 27 h2 v1 h-2Z M12 27 h6 v1 h-6Z M20 27 h1 v1 h-1Z M22 27 h1 v1 h-1Z M24 27 h1 v1 h-1Z M27 27 h1 v1 h-1Z M10 28 h4 v1 h-4Z M15 28 h3 v1 h-3Z M23 28 h1 v1 h-1Z M26 28 h3 v1 h-3Z " /><path class="qr-6 " stroke="transparent" fill="#fff" fill-opacity="1" d="M1 1 h5 v1 h-5Z M23 1 h5 v1 h-5Z M1 2 h1 v1 h-1Z M5 2 h1 v1 h-1Z M23 2 h1 v1 h-1Z M27 2 h1 v1 h-1Z M1 3 h1 v1 h-1Z M5 3 h1 v1 h-1Z M23 3 h1 v1 h-1Z M27 3 h1 v1 h-1Z M1 4 h1 v1 h-1Z M5 4 h1 v1 h-1Z M23 4 h1 v1 h-1Z M27 4 h1 v1 h-1Z M1 5 h5 v1 h-5Z M23 5 h5 v1 h-5Z M1 23 h5 v1 h-5Z M1 24 h1 v1 h-1Z M5 24 h1 v1 h-1Z M1 25 h1 v1 h-1Z M5 25 h1 v1 h-1Z M1 26 h1 v1 h-1Z M5 26 h1 v1 h-1Z M1 27 h5 v1 h-5Z " /><path class="qr-8 " stroke="transparent" fill="#fff" fill-opacity="1" d="M7 0 h1 v1 h-1Z M21 0 h1 v1 h-1Z M7 1 h1 v1 h-1Z M21 1 h1 v1 h-1Z M7 2 h1 v1 h-1Z M21 2 h1 v1 h-1Z M7 3 h1 v1 h-1Z M21 3 h1 v1 h-1Z M7 4 h1 v1 h-1Z M21 4 h1 v1 h-1Z M7 5 h1 v1 h-1Z M21 5 h1 v1 h-1Z M7 6 h1 v1 h-1Z M21 6 h1 v1 h-1Z M0 7 h8 v1 h-8Z M21 7 h8 v1 h-8Z M0 21 h8 v1 h-8Z M7 22 h1 v1 h-1Z M7 23 h1 v1 h-1Z M7 24 h1 v1 h-1Z M7 25 h1 v1 h-1Z M7 26 h1 v1 h-1Z M7 27 h1 v1 h-1Z M7 28 h1 v1 h-1Z " /><path class="qr-10 " stroke="transparent" fill="#fff" fill-opacity="1" d="M21 21 h3 v1 h-3Z M21 22 h1 v1 h-1Z M23 22 h1 v1 h-1Z M21 23 h3 v1 h-3Z " /><path class="qr-12 " stroke="transparent" fill="#fff" fill-opacity="1" d="M9 6 h1 v1 h-1Z M11 6 h1 v1 h-1Z M13 6 h1 v1 h-1Z M15 6 h1 v1 h-1Z M17 6 h1 v1 h-1Z M19 6 h1 v1 h-1Z M6 9 h1 v1 h-1Z M6 11 h1 v1 h-1Z M6 13 h1 v1 h-1Z M6 15 h1 v1 h-1Z M6 17 h1 v1 h-1Z M6 19 h1 v1 h-1Z " /><path class="qr-14 " stroke="transparent" fill="#fff" fill-opacity="1" d="M8 1 h1 v1 h-1Z M8 2 h1 v1 h-1Z M8 3 h1 v1 h-1Z M8 4 h1 v1 h-1Z M8 5 h1 v1 h-1Z M2 8 h1 v1 h-1Z M5 8 h1 v1 h-1Z M7 8 h2 v1 h-2Z M21 8 h1 v1 h-1Z M23 8 h5 v1 h-5Z M8 22 h1 v1 h-1Z M8 23 h1 v1 h-1Z M8 26 h1 v1 h-1Z " /><path class="qr-512 " stroke="transparent" fill="#000" fill-opacity="1" d="M8 21 h1 v1 h-1Z " /><path class="qr-1024 " stroke="transparent" fill="#000" fill-opacity="1" d="M9 0 h3 v1 h-3Z M14 0 h1 v1 h-1Z M18 0 h1 v1 h-1Z M11 1 h2 v1 h-2Z M16 1 h2 v1 h-2Z M19 1 h2 v1 h-2Z M9 2 h1 v1 h-1Z M11 2 h1 v1 h-1Z M13 2 h1 v1 h-1Z M15 2 h2 v1 h-2Z M19 2 h2 v1 h-2Z M10 3 h2 v1 h-2Z M13 3 h1 v1 h-1Z M15 3 h3 v1 h-3Z M20 3 h1 v1 h-1Z M10 4 h3 v1 h-3Z M14 4 h1 v1 h-1Z M16 4 h2 v1 h-2Z M19 4 h1 v1 h-1Z M9 5 h1 v1 h-1Z M11 5 h1 v1 h-1Z M16 5 h1 v1 h-1Z M20 5 h1 v1 h-1Z M9 7 h1 v1 h-1Z M12 7 h2 v1 h-2Z M15 7 h2 v1 h-2Z M9 8 h1 v1 h-1Z M12 8 h1 v1 h-1Z M14 8 h4 v1 h-4Z M1 9 h1 v1 h-1Z M7 9 h2 v1 h-2Z M10 9 h1 v1 h-1Z M13 9 h3 v1 h-3Z M17 9 h5 v1 h-5Z M23 9 h2 v1 h-2Z M26 9 h2 v1 h-2Z M0 10 h2 v1 h-2Z M3 10 h2 v1 h-2Z M7 10 h1 v1 h-1Z M9 10 h1 v1 h-1Z M12 10 h2 v1 h-2Z M15 10 h1 v1 h-1Z M20 10 h1 v1 h-1Z M23 10 h1 v1 h-1Z M26 10 h1 v1 h-1Z M2 11 h3 v1 h-3Z M8 11 h1 v1 h-1Z M17 11 h2 v1 h-2Z M22 11 h1 v1 h-1Z M25 11 h1 v1 h-1Z M28 11 h1 v1 h-1Z M2 12 h2 v1 h-2Z M5 12 h1 v1 h-1Z M8 12 h3 v1 h-3Z M15 12 h1 v1 h-1Z M20 12 h1 v1 h-1Z M22 12 h2 v1 h-2Z M28 12 h1 v1 h-1Z M0 13 h1 v1 h-1Z M2 13 h3 v1 h-3Z M7 13 h1 v1 h-1Z M9 13 h2 v1 h-2Z M12 13 h7 v1 h-7Z M21 13 h2 v1 h-2Z M24 13 h5 v1 h-5Z M0 14 h4 v1 h-4Z M9 14 h1 v1 h-1Z M15 14 h1 v1 h-1Z M19 14 h2 v1 h-2Z M22 14 h2 v1 h-2Z M26 14 h1 v1 h-1Z M28 14 h1 v1 h-1Z M0 15 h5 v1 h-5Z M8 15 h1 v1 h-1Z M12 15 h1 v1 h-1Z M15 15 h2 v1 h-2Z M18 15 h4 v1 h-4Z M23 15 h2 v1 h-2Z M26 15 h1 v1 h-1Z M28 15 h1 v1 h-1Z M1 16 h1 v1 h-1Z M5 16 h1 v1 h-1Z M7 16 h1 v1 h-1Z M10 16 h4 v1 h-4Z M15 16 h2 v1 h-2Z M20 16 h1 v1 h-1Z M25 16 h1 v1 h-1Z M0 17 h3 v1 h-3Z M5 17 h1 v1 h-1Z M11 17 h1 v1 h-1Z M15 17 h1 v1 h-1Z M18 17 h3 v1 h-3Z M24 17 h1 v1 h-1Z M26 17 h2 v1 h-2Z M0 18 h2 v1 h-2Z M4 18 h1 v1 h-1Z M7 18 h1 v1 h-1Z M9 18 h1 v1 h-1Z M12 18 h2 v1 h-2Z M15 18 h1 v1 h-1Z M19 18 h3 v1 h-3Z M25 18 h1 v1 h-1Z M28 18 h1 v1 h-1Z M0 19 h2 v1 h-2Z M3 19 h1 v1 h-1Z M5 19 h1 v1 h-1Z M7 19 h2 v1 h-2Z M11 19 h1 v1 h-1Z M13 19 h1 v1 h-1Z M15 19 h2 v1 h-2Z M21 19 h1 v1 h-1Z M23 19 h4 v1 h-4Z M0 20 h2 v1 h-2Z M3 20 h3 v1 h-3Z M8 20 h1 v1 h-1Z M11 20 h1 v1 h-1Z M13 20 h1 v1 h-1Z M16 20 h2 v1 h-2Z M25 20 h3 v1 h-3Z M10 21 h1 v1 h-1Z M12 21 h4 v1 h-4Z M18 21 h1 v1 h-1Z M25 21 h1 v1 h-1Z M9 22 h3 v1 h-3Z M13 22 h1 v1 h-1Z M15 22 h1 v1 h-1Z M17 22 h3 v1 h-3Z M25 22 h1 v1 h-1Z M10 23 h4 v1 h-4Z M16 23 h2 v1 h-2Z M27 23 h2 v1 h-2Z M9 24 h1 v1 h-1Z M11 24 h3 v1 h-3Z M15 24 h1 v1 h-1Z M19 24 h1 v1 h-1Z M25 24 h1 v1 h-1Z M27 24 h1 v1 h-1Z M9 25 h1 v1 h-1Z M13 25 h4 v1 h-4Z M18 25 h4 v1 h-4Z M23 25 h1 v1 h-1Z M28 25 h1 v1 h-1Z M11 26 h3 v1 h-3Z M15 26 h1 v1 h-1Z M21 26 h1 v1 h-1Z M23 26 h2 v1 h-2Z M26 26 h3 v1 h-3Z M11 27 h1 v1 h-1Z M18 27 h2 v1 h-2Z M21 27 h1 v1 h-1Z M23 27 h1 v1 h-1Z M25 27 h2 v1 h-2Z M28 27 h1 v1 h-1Z M9 28 h1 v1 h-1Z M14 28 h1 v1 h-1Z M18 28 h5 v1 h-5Z M24 28 h2 v1 h-2Z " /><path class="qr-1536 " stroke="transparent" fill="#000" fill-opacity="1" d="M0 0 h7 v1 h-7Z M22 0 h7 v1 h-7Z M0 1 h1 v1 h-1Z M6 1 h1 v1 h-1Z M22 1 h1 v1 h-1Z M28 1 h1 v1 h-1Z M0 2 h1 v1 h-1Z M6 2 h1 v1 h-1Z M22 2 h1 v1 h-1Z M28 2 h1 v1 h-1Z M0 3 h1 v1 h-1Z M6 3 h1 v1 h-1Z M22 3 h1 v1 h-1Z M28 3 h1 v1 h-1Z M0 4 h1 v1 h-1Z M6 4 h1 v1 h-1Z M22 4 h1 v1 h-1Z M28 4 h1 v1 h-1Z M0 5 h1 v1 h-1Z M6 5 h1 v1 h-1Z M22 5 h1 v1 h-1Z M28 5 h1 v1 h-1Z M0 6 h7 v1 h-7Z M22 6 h7 v1 h-7Z M0 22 h7 v1 h-7Z M0 23 h1 v1 h-1Z M6 23 h1 v1 h-1Z M0 24 h1 v1 h-1Z M6 24 h1 v1 h-1Z M0 25 h1 v1 h-1Z M6 25 h1 v1 h-1Z M0 26 h1 v1 h-1Z M6 26 h1 v1 h-1Z M0 27 h1 v1 h-1Z M6 27 h1 v1 h-1Z M0 28 h7 v1 h-7Z " /><path class="qr-2560 " stroke="transparent" fill="#000" fill-opacity="1" d="M20 20 h5 v1 h-5Z M20 21 h1 v1 h-1Z M24 21 h1 v1 h-1Z M20 22 h1 v1 h-1Z M22 22 h1 v1 h-1Z M24 22 h1 v1 h-1Z M20 23 h1 v1 h-1Z M24 23 h1 v1 h-1Z M20 24 h5 v1 h-5Z " /><path class="qr-3072 " stroke="transparent" fill="#000" fill-opacity="1" d="M8 6 h1 v1 h-1Z M10 6 h1 v1 h-1Z M12 6 h1 v1 h-1Z M14 6 h1 v1 h-1Z M16 6 h1 v1 h-1Z M18 6 h1 v1 h-1Z M20 6 h1 v1 h-1Z M6 8 h1 v1 h-1Z M6 10 h1 v1 h-1Z M6 12 h1 v1 h-1Z M6 14 h1 v1 h-1Z M6 16 h1 v1 h-1Z M6 18 h1 v1 h-1Z M6 20 h1 v1 h-1Z " /><path class="qr-3584 " stroke="transparent" fill="#000" fill-opacity="1" d="M8 0 h1 v1 h-1Z M8 7 h1 v1 h-1Z M0 8 h2 v1 h-2Z M3 8 h2 v1 h-2Z M22 8 h1 v1 h-1Z M28 8 h1 v1 h-1Z M8 24 h1 v1 h-1Z M8 25 h1 v1 h-1Z M8 27 h1 v1 h-1Z M8 28 h1 v1 h-1Z " /><path class="qr-5632 " stroke="transparent" fill="#000" fill-opacity="1" d="M2 2 h3 v1 h-3Z M24 2 h3 v1 h-3Z M2 3 h3 v1 h-3Z M24 3 h3 v1 h-3Z M2 4 h3 v1 h-3Z M24 4 h3 v1 h-3Z M2 24 h3 v1 h-3Z M2 25 h3 v1 h-3Z M2 26 h3 v1 h-3Z " /></svg>
